<?xml version="1.0" encoding="UTF-8" standalone="no"?>
<!DOCTYPE svg PUBLIC "-//W3C//DTD SVG 1.1//EN" "http://www.w3.org/Graphics/SVG/1.1/DTD/svg11.dtd">
<svg width="100%" height="100%" viewBox="0 0 320 320" version="1.1" xmlns="http://www.w3.org/2000/svg" xmlns:xlink="http://www.w3.org/1999/xlink" xml:space="preserve" xmlns:serif="http://www.serif.com/" style="fill-rule:evenodd;clip-rule:evenodd;stroke-linejoin:round;stroke-miterlimit:2;">
    <g id="Background" transform="matrix(0.991372,0,0,1.03457,0,0)">
        <g>
            <rect x="0" y="0" width="322.785" height="309.308"/>
        </g>
    </g>
    <g transform="matrix(0.834285,0,0,0.834285,25.3526,30.9743)">
        <g id="Tietokone" transform="matrix(0.606146,0,0,0.619692,-47.8607,-9.16649)">
            <path d="M569.997,14.792L569.997,339.228L120.441,339.228L120.441,14.792L569.997,14.792ZM569.997,355.753L593.942,405.666C605.633,429.724 611.479,452.994 611.479,475.478L611.479,513.924L78.959,513.924L78.959,475.478C78.959,453.219 84.805,429.949 96.496,405.666L120.441,355.753L569.997,355.753ZM553.472,31.317L136.966,31.317L136.966,322.703L553.472,322.703L553.472,31.317ZM559.089,372.279L130.026,372.279L108.901,417.929C99.956,437.317 95.484,452.985 95.484,464.933L95.484,497.399L594.954,497.399L594.954,484.889C594.954,462.342 589.814,439.797 579.535,417.254L559.089,372.279ZM170.017,99.158L170.017,254.525C170.017,270.063 171.988,279.746 175.929,283.574C179.871,287.401 189.727,289.315 205.497,289.315L483.93,289.315C500.149,289.315 510.286,287.457 514.34,283.742C518.394,280.027 520.421,270.625 520.421,255.537L520.421,98.483C520.421,83.395 518.337,73.937 514.169,70.109C510.001,66.282 499.921,64.368 483.93,64.368L205.497,64.368C189.727,64.368 179.871,66.225 175.929,69.941C171.988,73.656 170.017,83.395 170.017,99.158ZM155.852,393.188L197.334,393.188L197.334,409.714L239.828,409.714L239.828,393.188L280.635,393.188L280.635,409.714L322.792,409.714L322.792,393.188L363.937,393.188L363.937,409.714L406.093,409.714L406.093,393.188L447.238,393.188L447.238,409.714L489.057,409.714L489.057,393.188L530.539,393.188L530.539,409.714L489.394,409.714L489.394,426.913L530.539,426.913L530.539,442.764L489.057,442.764L489.057,426.913L447.238,426.913L447.238,442.764L406.093,442.764L406.093,426.913L363.599,426.913L363.599,442.764L322.792,442.764L322.792,426.913L280.635,426.913L280.635,442.764L239.828,442.764L239.828,426.913L197.334,426.913L197.334,442.764L155.852,442.764L155.852,426.239L196.997,426.239L196.997,409.714L155.852,409.714L155.852,393.188ZM239.153,426.239L280.635,426.239L280.635,410.388L239.153,410.388L239.153,426.239ZM322.792,426.239L363.937,426.239L363.937,410.388L322.792,410.388L322.792,426.239ZM406.093,426.239L447.238,426.239L447.238,410.388L406.093,410.388L406.093,426.239ZM153.492,254.915L153.492,99.105C153.492,76.172 156.307,61.895 161.939,56.274C167.57,50.653 182.096,47.843 205.518,47.843L484.92,47.843C508.342,47.843 522.868,50.653 528.499,56.274C534.131,61.895 536.947,76.172 536.947,99.105L536.947,254.915C536.947,277.623 534.075,291.788 528.331,297.409C522.587,303.03 508.117,305.84 484.92,305.84L205.518,305.84C182.321,305.84 167.851,303.03 162.107,297.409C156.363,291.788 153.492,277.623 153.492,254.915Z" style="fill:white;fill-rule:nonzero;"/>
        </g>
        <g transform="matrix(0.802166,-0.00303194,-0.00303194,0.999954,-87.45,-149.093)">
            <path d="M208.207,212.721L208.175,204.393L223.98,204.441L224.011,212.769L208.207,212.721ZM235.324,212.803L235.292,204.475L256.52,204.54L256.552,212.868L235.324,212.803ZM267.864,212.902L267.833,204.574L289.061,204.638L289.092,212.966L267.864,212.902ZM300.404,213L300.373,204.673L321.601,204.737L321.632,213.065L300.404,213ZM332.945,213.099L332.914,204.771L354.142,204.836L354.173,213.164L332.945,213.099ZM365.485,213.198L365.454,204.87L386.682,204.934L386.713,213.262L365.485,213.198ZM398.026,213.296L397.994,204.969L413.799,205.017L413.83,213.344L398.026,213.296Z" style="fill:white;"/>
        </g>
        <g transform="matrix(0.802166,-0.00303194,-0.00303194,0.999954,-87.45,-114.552)">
            <path d="M208.207,212.721L208.175,204.393L223.98,204.441L224.011,212.769L208.207,212.721ZM235.324,212.803L235.292,204.475L256.52,204.54L256.552,212.868L235.324,212.803ZM267.864,212.902L267.833,204.574L289.061,204.638L289.092,212.966L267.864,212.902ZM300.404,213L300.373,204.673L321.601,204.737L321.632,213.065L300.404,213ZM332.945,213.099L332.914,204.771L354.142,204.836L354.173,213.164L332.945,213.099ZM365.485,213.198L365.454,204.87L386.682,204.934L386.713,213.262L365.485,213.198ZM398.026,213.296L397.994,204.969L413.799,205.017L413.83,213.344L398.026,213.296Z" style="fill:white;"/>
        </g>
        <g transform="matrix(0.802166,-0.00303194,-0.00303194,0.999954,-87.45,-131.822)">
            <path d="M208.207,212.721L208.175,204.393L223.98,204.441L224.011,212.769L208.207,212.721ZM235.324,212.803L235.292,204.475L256.52,204.54L256.552,212.868L235.324,212.803ZM267.864,212.902L267.833,204.574L289.061,204.638L289.092,212.966L267.864,212.902ZM300.404,213L300.373,204.673L321.601,204.737L321.632,213.065L300.404,213ZM332.945,213.099L332.914,204.771L354.142,204.836L354.173,213.164L332.945,213.099ZM365.485,213.198L365.454,204.87L386.682,204.934L386.713,213.262L365.485,213.198ZM398.026,213.296L397.994,204.969L413.799,205.017L413.83,213.344L398.026,213.296Z" style="fill:white;"/>
        </g>
        <g transform="matrix(1,0,0,1,-129.608,-144.022)">
            <path d="M208.529,260.221L208.529,251.894L221.248,251.894L221.248,260.221L208.529,260.221ZM230.487,260.221L230.487,251.894L247.598,251.894L247.598,260.221L230.487,260.221ZM256.837,260.221L256.837,251.894L273.948,251.894L273.948,260.221L256.837,260.221ZM283.187,260.221L283.187,251.894L300.298,251.894L300.298,260.221L283.187,260.221ZM309.537,260.221L309.537,251.894L322.256,251.894L322.256,260.221L309.537,260.221Z" style="fill:white;"/>
        </g>
    </g>
</svg>
